<svg id="Layer_1" data-name="Layer 1" xmlns="http://www.w3.org/2000/svg" xmlns:xlink="http://www.w3.org/1999/xlink" viewBox="0 0 537.66 253.38"><defs><style>.cls-1{fill:none;stroke-width:1.8px;}.cls-1,.cls-2{stroke:#231f20;stroke-miterlimit:10;}.cls-2{fill:#c0392b;}.cls-3,.cls-4,.cls-6{isolation:isolate;}.cls-3,.cls-4{font-size:90.55px;font-family:Algerian;}.cls-4{fill:#231f20;}.cls-5{fill:url(#radial-gradient);}.cls-6{font-size:109.17px;fill:#f1f5f9;font-family:CopperplateGothic-Bold, Copperplate Gothic Bold;font-weight:700;}</style><radialGradient id="radial-gradient" cx="8.85" cy="872.04" r="63.91" gradientTransform="matrix(1, 0, 0, -1, 94, 1057.38)" gradientUnits="userSpaceOnUse"><stop offset="0.37" stop-color="#94dfff"/><stop offset="0.6" stop-color="#f1f2f2"/></radialGradient></defs><polygon class="cls-1" points="218.54 189.52 218.54 63.87 109.72 1.04 0.9 63.87 0.9 189.52 109.72 252.34 218.54 189.52"/><polygon class="cls-2" points="190.89 173.55 190.89 79.83 109.72 32.97 28.55 79.83 28.55 173.55 109.72 220.41 190.89 173.55"/><text class="cls-3" transform="translate(54.56 153.34) scale(1.14 1)">Mi</text><text class="cls-4" transform="translate(54.56 153.34) scale(1.14 1)">Mi</text><path class="cls-5" d="M124.61,93l-6.9,6.14v45.39l6.18,5.18H100.7l7.19-5.18V114.79L91.71,153.34H86.89l-.44-1.19h4.39L107.71,111v-6.76L88.94,149.67h-3.6L71.49,114v23.55a22.33,22.33,0,0,0,.72,6.66,11.59,11.59,0,0,0,3.42,4.13l4.53,5H53.76l-.89-1.19H77.64l-1.87-2.45H53.26l1-.46a18,18,0,0,0,7.41-5.47,16.55,16.55,0,0,0,1.8-8.74V98.46L56.86,93H82.93l-7.19,5.79,14.38,37,1.8-3.85L79,99.14l6.62-4.27,1,.71L80.38,99.5l11.79,30.86,13-31.5L99,93.07ZM67.5,103.46v31.76a21.65,21.65,0,0,0,1.58,10,9.83,9.83,0,0,0,6.59,4l-.47-.68a9.63,9.63,0,0,1-4.93-8.67V110.51Zm60-7L121.73,100v44.71l8.78,8.77H103.72l-.69-1.19h24.42l-7.19-6.94V99.25l5.93-3.59Z"/><path class="cls-5" d="M132.24,93h23.91l-6.76,6v46l6.51,4.68H132.24l7-5V98.53Zm26.18,2.51L153.27,100V145l8.49,8.31H135.51l-1.19-1.19h24.46l-6.91-6.69V99.58l5.68-5Z"/><text class="cls-6" transform="translate(268.19 179.01) scale(0.32 1)">MARLIZ</text><text class="cls-6" transform="translate(419.73 179.01) scale(0.32 1)">INTEL</text></svg>