<svg id="Layer_1" data-name="Layer 1" xmlns="http://www.w3.org/2000/svg" xmlns:xlink="http://www.w3.org/1999/xlink" viewBox="0 0 128.33 77.43"><defs><style>.cls-1{fill:none;stroke-width:1.8px;}.cls-1,.cls-2{stroke:#231f20;stroke-miterlimit:10;}.cls-2{fill:#c0392b;}.cls-3,.cls-4{font-size:25.18px;font-family:Algerian;}.cls-4{fill:#231f20;}.cls-5{fill:url(#radial-gradient);}.cls-6{font-size:22.86px;font-family:CopperplateGothic-Light, Copperplate Gothic Light;font-weight:300;}</style><radialGradient id="radial-gradient" cx="29.25" cy="52.29" r="17.77" gradientUnits="userSpaceOnUse"><stop offset="0.37" stop-color="#94dfff"/><stop offset="0.6" stop-color="#f1f2f2"/></radialGradient></defs><polygon class="cls-1" points="61.42 53.45 61.42 18.51 31.16 1.04 0.9 18.51 0.9 53.45 31.16 70.92 61.42 53.45"/><polygon class="cls-2" points="53.73 49.01 53.73 22.95 31.16 9.92 8.59 22.95 8.59 49.01 31.16 62.04 53.73 49.01"/><text class="cls-3" transform="translate(15.82 43.39) scale(1.14 1)">Mi</text><text class="cls-4" transform="translate(15.82 43.39) scale(1.14 1)">Mi</text><path class="cls-5" d="M35.3,26.61l-1.92,1.71V40.94l1.72,1.44H28.65l2-1.44V32.67L26.15,43.39H24.81l-.12-.33h1.22L30.6,31.62V29.74L25.38,42.37h-1l-3.85-9.92V39a6.11,6.11,0,0,0,.2,1.85A3.22,3.22,0,0,0,21.68,42l1.26,1.4H15.6l-.25-.33h6.89l-.52-.68H15.46l.29-.13a5,5,0,0,0,2.06-1.52,4.59,4.59,0,0,0,.5-2.43V28.13l-1.85-1.52h7.25l-2,1.61,4,10.29.5-1.07-3.59-9.12,1.84-1.19.29.2-1.75,1.09L26.28,37l3.62-8.76-1.71-1.61ZM19.42,29.52v8.83a6,6,0,0,0,.44,2.79,2.73,2.73,0,0,0,1.83,1.11l-.13-.19a2.67,2.67,0,0,1-1.37-2.41V31.48Zm16.67-1.95-1.59,1V41l2.44,2.44H29.49l-.19-.33h6.79l-2-1.93V28.35l1.65-1Z"/><path class="cls-5" d="M37.42,26.61h6.65l-1.88,1.67v12.8L44,42.38H37.42L39.37,41V28.15Zm7.28.7-1.43,1.24V41.08l2.36,2.31h-7.3L38,43.06H44.8L42.88,41.2V28.44l1.58-1.38Z"/><text class="cls-6" transform="translate(62.99 44.28) scale(0.38 1)">MARLIZ</text><text class="cls-6" transform="translate(100.28 44.28) scale(0.38 1)">INTEL</text></svg>